# xmcd
#
# Track frame offsets:
#	150
#	22837
#	46415
#	66292
#	89487
#	103230
#	121870
#	147660
#	162075
#	177875
#	198947
#
# Disc length: 2805 seconds
#
# Revision: 2
# Processed by: cddbd v1.5.1PL2 Copyright (c) Steve Scherf et al.
# Submitted via: dBpowerAMP V4.0
#
DISCID=950af30b
DTITLE=Ronnie McDowell - Country Dances
DYEAR=1993
DGENRE=Country
TTITLE0=Funky Cowboy
TTITLE1=Dancin' Shoes
TTITLE2=Little Ole Swingin' Thing
TTITLE3=Yippi Ti Yi Yo
TTITLE4=Love at First Dance
TTITLE5=Swayin' to the Music (Slow Dancing)
TTITLE6=Rockin' Pneumonia
TTITLE7=Tie One On
TTITLE8=Day Off
TTITLE9=The Twist
TTITLE10=The Gas and Food Exit (Off of I-24)
EXTD=
EXTT0=
EXTT1=
EXTT2=
EXTT3=
EXTT4=
EXTT5=
EXTT6=
EXTT7=
EXTT8=
EXTT9=
EXTT10=
PLAYORDER=
